PathFileType	4	(X/Y/Z)	C:/Users/opensim2020/Desktop/walking_exp_matlab/subject03_walking16_run.trc																																																																																																																																																	
DataRate	CameraRate	NumFrames	NumMarkers	Units	OrigDataRate	OrigDataStartFrame	OrigNumFrames																																																																																																																																													
100	100	5	49	mm	100	305	131																																																																																																																																													
Frame#	Time	RKNE			RTOE			RWRB			LTHI			RELB			RFRM			RUPA			RASI			LTIB			RWRA			RTHI			LSHO			LTOE			RTIB			LWRA			CLAV			LASI			RSHO			RFHD			STRN			LHEE			RFIN			RBHD			LFRM			C7			LWRB			LFIN			LUPA			LBHD			LELB			RANK			RHEE			RBAK			LPSI			T10			LFHD			RPSI			LKNE			LANK			*39			*40			*41			*42			*43			*44			*45			*46			*47			*48		
		X1	Y1	Z1	X2	Y2	Z2	X3	Y3	Z3	X4	Y4	Z4	X5	Y5	Z5	X6	Y6	Z6	X7	Y7	Z7	X8	Y8	Z8	X9	Y9	Z9	X10	Y10	Z10	X11	Y11	Z11	X12	Y12	Z12	X13	Y13	Z13	X14	Y14	Z14	X15	Y15	Z15	X16	Y16	Z16	X17	Y17	Z17	X18	Y18	Z18	X19	Y19	Z19	X20	Y20	Z20	X21	Y21	Z21	X22	Y22	Z22	X23	Y23	Z23	X24	Y24	Z24	X25	Y25	Z25	X26	Y26	Z26	X27	Y27	Z27	X28	Y28	Z28	X29	Y29	Z29	X30	Y30	Z30	X31	Y31	Z31	X32	Y32	Z32	X33	Y33	Z33	X34	Y34	Z34	X35	Y35	Z35	X36	Y36	Z36	X37	Y37	Z37	X38	Y38	Z38	X39	Y39	Z39	X40	Y40	Z40	X41	Y41	Z41	X42	Y42	Z42	X43	Y43	Z43	X44	Y44	Z44	X45	Y45	Z45	X46	Y46	Z46	X47	Y47	Z47	X48	Y48	Z48	X49	Y49	Z49
																																																																																																																																																				
115	1.14	2177.13379	523.16583	347.69647	2405.02588	82.19076	269.88171	1884.34851	1007.2677	448.32922	1922.14917	665.62146	80.84493	1768.09326	1197.4707	485.46179	1834.13428	1091.43115	466.65524	1818.86401	1281.41821	468.71655	2061.64014	962.30682	345.61163	1704.19666	370.54819	130.09465	1912.89941	1043.31921	421.37799	2085.41138	676.87054	387.28262	1995.13623	1420.70471	94.11405	1575.33032	73.48134	222.26604	2207.30444	335.18469	353.24728	2130.03662	1255.17334	182.55067	2034.33936	1371.43799	244.02066	2061.34302	953.90332	114.78379	1964.10938	1409.43604	383.34534	1998.84302	1660.46216	295.0405	2093.40845	1210.0481	244.99965	1522.27246	251.39406	212.5361	1949.21814	986.01428	459.83194	1895.19397	1583.01587	286.42734	2114.85986	1194.16174	84.94051	1905.6167	1433.87122	219.35347	2177.70972	1224.15918	173.73979	2193.56299	1272.89124	243.94351	2037.17664	1247.09436	4.34139	1910.84143	1571.14807	156.82578	2067.88696	1148.724	-0.89285	2261.24829	124.87808	307.12903	2221.68042	101.15567	254.18483	1852.30469	1282.75256	293.64932	1907.45984	1000.16901	162.85336	1894.06592	1127.50342	221.07289	2019.94629	1649.52747	164.37178	1904.31006	998.29126	309.72171	1865.75684	493.4357	118.77761	1558.87488	224.19229	174.88005	NaN	NaN	NaN	NaN	NaN	NaN	NaN	NaN	NaN	NaN	NaN	NaN	NaN	NaN	NaN	NaN	NaN	NaN	NaN	NaN	NaN	1918.01147	1685.77722	199.16841	NaN	NaN	NaN	NaN	NaN	NaN
116	1.15	2206.08545	518.49634	346.51968	2445.51416	82.92224	266.29507	1917.30591	1005.97137	448.61148	1957.38184	662.75336	79.8262	1800.21924	1195.71777	487.07831	1866.72681	1090.17175	467.44266	1850.57959	1279.34424	469.97589	2093.35645	958.91571	345.03662	1734.55127	373.60953	126.83739	1945.39087	1042.30737	421.56268	2114.12769	670.66577	388.40549	2024.6554	1418.95642	93.77367	1599.06396	82.16882	216.13382	2240.58032	333.47028	350.36804	2161.29614	1251.91199	181.71275	2065.25098	1369.83948	243.96051	2093.82617	952.19232	114.49805	1995.08899	1407.2262	383.43018	2028.76111	1658.77649	294.61691	2124.95142	1208.45984	244.37631	1545.72498	260.73044	211.33804	1982.43286	984.63635	459.28174	1925.29285	1580.93494	286.52747	2145.84229	1192.04272	83.66034	1936.19238	1431.06091	219.67632	2208.10693	1220.44824	173.5154	2223.58276	1267.72705	245.51819	2067.75146	1245.29309	3.19512	1940.73633	1568.7301	156.92844	2099.87744	1147.11499	-3.73617	2300.74634	125.25784	302.33102	2262.69214	102.62356	248.20522	1883.52783	1278.30835	295.42639	1939.4397	997.82416	162.47922	1926.00024	1124.00073	221.46674	2050.02466	1647.7019	163.93977	1936.3208	995.03589	309.64554	1901.30066	489.65222	117.29179	1582.86523	234.05899	172.79008	NaN	NaN	NaN	NaN	NaN	NaN	NaN	NaN	NaN	NaN	NaN	NaN	NaN	NaN	NaN	NaN	NaN	NaN	NaN	NaN	NaN	1947.06201	1683.43982	199.08923	NaN	NaN	NaN	NaN	NaN	NaN
117	1.16	2236.03857	514.40289	345.48752	2479.96729	81.78587	261.60745	1951.81726	1002.5293	449.18341	1993.776	658.58276	78.64555	1833.2887	1191.46985	489.04617	1900.79895	1086.55774	468.71249	1883.25159	1275.41064	471.64645	2124.66211	954.95001	344.49393	1767.31689	375.30414	123.93265	1979.37366	1039.23901	422.04065	2143.41211	664.64227	389.89395	2054.2002	1416.36975	93.10176	1624.64539	90.76171	209.92767	2272.28906	330.6485	347.39606	2194.24316	1245.06335	181.36066	2096.31104	1367.31104	243.76575	2125.8252	949.78967	114.12696	2026.16223	1403.84265	383.47107	2058.56909	1656.36792	294.28171	2156.5625	1205.89124	244.61292	1571.54041	269.61349	209.72552	2017.44299	981.40875	459.11008	1955.52698	1578.05188	286.74738	2177.46631	1186.97534	82.38648	1966.76697	1427.28418	219.88536	2238.45459	1212.30847	173.0041	2256.00244	1257.32886	246.95499	2097.37158	1242.58069	1.49402	1970.68079	1565.54993	157.02928	2130.57007	1143.95618	-6.69559	2334.56201	122.98135	297.88235	2297.02222	101.4074	242.79631	1914.33411	1273.05115	296.85318	1970.76892	993.99628	162.42458	1957.62891	1119.6366	221.60989	2079.66675	1645.04333	163.55591	1967.87463	990.95001	309.87598	1939.02344	484.46432	114.94782	1609.1344	243.45663	170.43489	NaN	NaN	NaN	NaN	NaN	NaN	NaN	NaN	NaN	NaN	NaN	NaN	NaN	NaN	NaN	NaN	NaN	NaN	NaN	NaN	NaN	1976.32581	1680.44971	198.68298	NaN	NaN	NaN	NaN	NaN	NaN
118	1.17	2266.72559	510.98984	344.08496	2508.46655	76.90068	256.0235	1987.93347	997.10602	450.23303	2031.25696	653.28394	77.30441	1867.81775	1184.80261	491.95923	1936.43188	1080.73975	470.70758	1916.64429	1269.64441	473.59052	2155.82373	950.65375	344.04117	1802.68823	375.86975	121.3535	2014.80334	1034.1698	423.1329	2173.33887	659.1236	390.76138	2084.17749	1413.00732	92.24834	1651.9231	98.93756	204.0687	2301.85767	326.43268	344.58325	2228.27881	1234.56921	181.39088	2127.35034	1363.87488	243.40887	2157.39355	946.77618	113.63515	2057.24536	1399.46936	383.49811	2088.22681	1652.90845	294.02414	2187.61499	1202.55884	243.58775	1600.18262	278.181	207.60019	2054.05933	976.54431	459.41479	1985.61487	1574.11023	286.7756	2209.50269	1179.04272	80.95333	1997.52881	1422.57764	220.31802	2270.30322	1200.19324	172.20802	2290.46729	1241.97034	247.70624	2126.00977	1239.0199	-0.69915	2000.55139	1561.52393	157.1859	2159.85522	1139.44885	-9.80708	2363.34326	118.51561	293.11475	2326.05029	98.18043	237.70505	1945.5094	1267.28186	298.39969	2001.40503	988.80365	162.6062	1989.14136	1114.50085	221.81732	2109.28735	1641.64465	163.26361	1998.86145	986.00037	310.05649	1979.01208	478.5954	111.77	1638.15515	252.36198	167.51837	NaN	NaN	NaN	NaN	NaN	NaN	NaN	NaN	NaN	NaN	NaN	NaN	NaN	NaN	NaN	NaN	NaN	NaN	NaN	NaN	NaN	2005.61035	1677.7821	199.17369	NaN	NaN	NaN	NaN	NaN	NaN
119	1.18	2298.01196	507.89905	342.50305	2531.39038	67.55003	250.44737	2025.76917	990.09424	451.94104	2069.51245	646.84662	75.68784	1903.67847	1176.1344	495.31567	1973.30652	1072.91992	472.77768	1950.70178	1261.91956	475.55658	2186.5293	946.00739	343.57458	1840.28052	375.01089	118.92587	2051.92725	1027.49646	424.74121	2203.8772	654.27954	390.65341	2114.65112	1408.61768	91.40067	1680.96985	106.31113	198.50909	2329.46191	320.71405	341.17636	2263.03149	1220.67249	181.30922	2158.3269	1359.45947	242.98129	2188.57178	943.14929	113.18552	2088.25195	1394.22253	383.56119	2117.89258	1648.60596	294.03488	2219.06177	1199.24182	244.69791	1631.55945	286.34045	204.54771	2092.16992	970.05756	460.20142	2015.69824	1569.15173	286.87958	2241.30273	1168.42053	79.23076	2028.34009	1417.12598	220.54749	2303.06982	1185.16077	170.14198	2326.25903	1222.23071	247.30084	2154.03833	1234.755	-3.21345	2030.46326	1556.66833	157.25201	2187.5835	1133.5636	-12.40356	2387.3269	111.8423	288.35986	2349.8623	93.32934	232.57195	1976.60974	1260.96228	299.69528	2031.65625	982.42871	162.69951	2019.48303	1109.0929	221.39841	2138.74561	1637.39844	163.21822	2029.34619	980.33685	309.99728	2020.22656	470.75775	108.8615	1669.85168	259.88113	164.10591	NaN	NaN	NaN	NaN	NaN	NaN	NaN	NaN	NaN	NaN	NaN	NaN	NaN	NaN	NaN	NaN	NaN	NaN	NaN	NaN	NaN	2035.10181	1672.06799	199.20589	NaN	NaN	NaN	NaN	NaN	NaN
